PathFileType	4	(X/Y/Z)	Walk8.trc
DataRate	CameraRate	NumFrames	NumMarkers	Units	OrigDataRate	OrigDataStartFrame	OrigNumFrames
200.000000	200.000000	5	59	mm	200.000000	493	530
Frame#	Times		LBHD		C7		T10		LPSI		RPSI		RCAR		LElbowM		LTB1		RWRR		LLFC		LUA1		LFHD		RUA1		LACR1		LCAR		RWRU		RFA1		RElbowM		RTH3		LWRU		LFA1		CLAV		STRN		RACR1		RBack		RTB1		RBHD		RTH2		RCAL		RTB4		LWRR		RToe		RTB3		RFHD		RMT1		RTB2		RTH4		RMT5		RElbow		RTH1		LTB3		LElbow		LMT1		RMMAL		LTH1		LTH3		LTH4		RASI		RLFC		LTH2		LCAL		LLMAL		LMT5		LASI		RLMAL		LTB2		LTB4		LToe		LMMAL
			X1	Y1	Z1	X2	Y2	Z2	X3	Y3	Z3	X4	Y4	Z4	X5	Y5	Z5	X6	Y6	Z6	X7	Y7	Z7	X8	Y8	Z8	X9	Y9	Z9	X10	Y10	Z10	X11	Y11	Z11	X12	Y12	Z12	X13	Y13	Z13	X14	Y14	Z14	X15	Y15	Z15	X16	Y16	Z16	X17	Y17	Z17	X18	Y18	Z18	X19	Y19	Z19	X20	Y20	Z20	X21	Y21	Z21	X22	Y22	Z22	X23	Y23	Z23	X24	Y24	Z24	X25	Y25	Z25	X26	Y26	Z26	X27	Y27	Z27	X28	Y28	Z28	X29	Y29	Z29	X30	Y30	Z30	X31	Y31	Z31	X32	Y32	Z32	X33	Y33	Z33	X34	Y34	Z34	X35	Y35	Z35	X36	Y36	Z36	X37	Y37	Z37	X38	Y38	Z38	X39	Y39	Z39	X40	Y40	Z40	X41	Y41	Z41	X42	Y42	Z42	X43	Y43	Z43	X44	Y44	Z44	X45	Y45	Z45	X46	Y46	Z46	X47	Y47	Z47	X48	Y48	Z48	X49	Y49	Z49	X50	Y50	Z50	X51	Y51	Z51	X52	Y52	Z52	X53	Y53	Z53	X54	Y54	Z54	X55	Y55	Z55	X56	Y56	Z56	X57	Y57	Z57	X58	Y58	Z58	X59	Y59	Z59

493	2.465	853.78	1492.2	-90.915	841.62	1358.8	-18.051	820.15	1093.1	-7.1491	794.55	908.86	-38.377	788.81	911.68	61.487	1029.3	773.45	306.63	848.51	969.26	-201.74	961.16	342.4	-39.571	1049.7	812.49	257.71	926	454.01	-118.18	917.8	1115.2	-256.03	1026	1511.4	-70.743	937.99	1161.8	226.29	920.92	1290.3	-179.03	992.4	720.46	-307.32	979.61	790.55	273.16	942.62	895.35	285.39	879.27	977.24	198.74	978.2	556.42	188.83	938.87	758.09	-306.54	905.78	877.43	-293.32	970.99	1286.6	-11.933	1036.8	1182.5	-11.322	923.59	1312.4	137.3	825.52	1269.3	118.37	995.71	334.73	106.29	853.15	1500.1	32.819	1034.1	668.52	188.38	747.62	140.83	79.235	936.18	265.84	100.78	994.25	759.95	-257.91	924.05	38.466	128.99	888.3	185.63	93.886	1030.3	1521.3	6.7522	891.38	77.223	99.22	900.85	284.65	161.72	960.77	649.26	206.15	852.19	75.88	140.41	925.74	1021.4	272.4	946.2	735.88	225.73	951.56	160.68	-25.084	878.56	999.7	-268.6	1013.7	46.05	-17.953	831	135.83	50.029	953.39	746.54	-176.96	956.74	563.6	-127.45	956.68	656.33	-149.25	1027.5	883.78	153.82	1013.9	463.74	184.22	1018.7	669.98	-111.93	858.6	27.972	-20.105	900.65	61.368	-62.516	987.89	27.675	-71.801	997.47	838.92	-141.08	802.48	139.02	124.21	920.27	248.89	-98.659	947.81	251.85	-33.484	1069.8	21.953	-28.964	923.42	67.596	13.695
494	2.47	859.82	1492	-91.025	847.56	1358.7	-18.308	825.94	1093.1	-7.4591	799.7	909.03	-38.32	794.16	911.63	61.657	1033.7	773.22	307.31	854.97	968.82	-202.35	962.58	342.19	-39.45	1054.5	812.25	258.53	928.23	453.99	-118.16	923.88	1115	-256.37	1032.1	1511.3	-70.723	942.82	1161.5	226.1	926.93	1290.2	-179.24	1001	720.91	-306.96	984.29	790.25	273.48	947.12	895.05	285.46	884.54	976.92	198.16	986.9	556.86	188.03	947.16	758.17	-306.47	913.24	877.25	-293.55	976.77	1286.3	-12.051	1042.4	1182.1	-11.382	929.21	1312	137.11	831.07	1269.2	117.96	1007.7	335.11	105.18	859.1	1499.9	32.702	1041.5	669.57	187.85	764.48	134.35	79.807	949.9	264.71	100.09	1002.4	760.47	-257.6	944.89	38.379	129.39	904.13	183.25	93.573	1036.3	1521.1	6.7811	910.64	75.892	99.544	914.6	282.54	161.37	968.39	649.44	205.58	871.74	73.325	140.82	930.18	1021.1	272.35	952.8	735.84	225.42	952.09	160.54	-24.941	885.12	999.45	-269.08	1013.7	45.941	-17.868	847.92	131.89	50.179	958.3	746.3	-176.87	959.92	563.33	-127.28	960.71	656.02	-149.07	1033	883.75	153.97	1023.8	464.54	183.09	1022.6	669.23	-111.35	858.62	27.996	-19.954	900.8	61.404	-62.413	987.87	27.654	-71.756	1007.4	839.63	-141.72	819.81	134.36	124.57	921.33	248.86	-98.589	948.8	251.74	-33.383	1069.8	21.984	-29.056	923.54	67.541	13.813
495	2.475	865.87	1491.8	-91.116	853.5	1358.6	-18.543	831.76	1093	-7.7543	804.86	909.15	-38.231	799.51	911.51	61.857	1038.2	772.95	307.98	861.47	968.35	-202.92	964.07	341.97	-39.321	1059.2	811.98	259.34	930.54	453.93	-118.13	929.99	1114.8	-256.69	1038.1	1511.1	-70.682	947.68	1161.1	225.93	932.94	1290.1	-179.43	1009.5	721.32	-306.59	988.97	789.91	273.77	951.61	894.7	285.54	889.79	976.55	197.61	995.55	557.28	187.23	955.44	758.21	-306.39	920.7	877.04	-293.75	982.56	1286	-12.151	1048.1	1181.7	-11.436	934.84	1311.6	136.95	836.63	1269	117.57	1019.6	335.5	104.08	865.05	1499.7	32.6	1048.8	670.57	187.28	781.58	127.94	80.42	963.66	263.61	99.427	1010.5	760.95	-257.29	965.68	38.357	129.64	920.06	180.94	93.282	1042.2	1520.9	6.8346	929.91	74.594	99.756	928.4	280.48	161.03	975.98	649.59	205.02	891.36	70.815	141.16	934.6	1020.8	272.31	959.38	735.77	225.12	952.65	160.38	-24.779	891.69	999.16	-269.52	1013.7	45.825	-17.764	864.97	128.03	50.327	963.22	745.99	-176.79	963.16	563.02	-127.11	964.77	655.68	-148.91	1038.4	883.65	154.14	1033.5	465.32	181.92	1026.6	668.46	-110.8	858.63	28.028	-19.802	900.95	61.442	-62.296	987.85	27.64	-71.703	1017	840.32	-142.35	837.31	129.77	124.94	922.43	248.82	-98.508	949.81	251.61	-33.265	1069.9	21.996	-29.129	923.66	67.483	13.951
496	2.48	871.92	1491.6	-91.187	859.44	1358.4	-18.754	837.61	1092.9	-8.0351	810.01	909.22	-38.112	804.86	911.32	62.081	1042.6	772.64	308.63	868.01	967.82	-203.45	965.61	341.73	-39.185	1063.9	811.67	260.15	932.91	453.85	-118.09	936.12	1114.6	-257	1044.1	1510.9	-70.62	952.58	1160.6	225.78	938.96	1289.9	-179.6	1018	721.7	-306.21	993.65	789.53	274.05	956.1	894.31	285.63	895.01	976.14	197.08	1004.1	557.68	186.43	963.69	758.22	-306.29	928.15	876.8	-293.92	988.34	1285.6	-12.233	1053.7	1181.2	-11.485	940.48	1311.2	136.79	842.19	1268.8	117.21	1031.5	335.91	103.02	871.01	1499.4	32.515	1056.1	671.54	186.68	798.91	121.64	81.066	977.46	262.55	98.795	1018.6	761.38	-256.97	986.4	38.407	129.74	936.06	178.71	93.014	1048.2	1520.7	6.9126	949.2	73.347	99.867	942.22	278.47	160.69	983.54	649.7	204.47	911.03	68.373	141.45	939.01	1020.5	272.29	965.95	735.66	224.82	953.22	160.21	-24.599	898.28	998.82	-269.93	1013.7	45.704	-17.644	882.14	124.26	50.473	968.14	745.64	-176.72	966.43	562.7	-126.94	968.87	655.29	-148.77	1043.8	883.48	154.34	1043.1	466.09	180.71	1030.5	667.67	-110.28	858.64	28.069	-19.65	901.12	61.481	-62.167	987.83	27.633	-71.64	1026.2	841	-142.96	854.97	125.26	125.32	923.57	248.76	-98.418	950.86	251.45	-33.126	1070	21.987	-29.183	923.78	67.422	14.107
497	2.485	877.97	1491.3	-91.238	865.38	1358.2	-18.941	843.46	1092.7	-8.3019	815.16	909.23	-37.964	810.2	911.08	62.322	1047	772.28	309.27	874.6	967.26	-203.93	967.22	341.47	-39.039	1068.6	811.33	260.96	935.34	453.74	-118.04	942.29	1114.3	-257.29	1050.2	1510.6	-70.537	957.51	1160.2	225.64	944.99	1289.6	-179.75	1026.5	722.03	-305.83	998.32	789.11	274.32	960.57	893.88	285.72	900.2	975.71	196.58	1012.7	558.05	185.63	971.93	758.18	-306.16	935.6	876.52	-294.08	994.12	1285.1	-12.295	1059.4	1180.6	-11.527	946.13	1310.7	136.66	847.76	1268.5	116.87	1043.4	336.33	101.98	876.97	1499	32.446	1063.4	672.45	186.06	816.45	115.46	81.739	991.29	261.53	98.192	1026.7	761.77	-256.64	1007	38.538	129.71	952.14	176.57	92.77	1054.2	1520.4	7.0148	968.48	72.165	99.888	956.07	276.52	160.36	991.07	649.78	203.92	930.74	66.021	141.68	943.4	1020.1	272.27	972.51	735.5	224.53	953.81	160.02	-24.4	904.89	998.44	-270.31	1013.8	45.576	-17.505	899.43	120.61	50.619	973.07	745.23	-176.67	969.75	562.34	-126.76	973.01	654.87	-148.64	1049.2	883.25	154.56	1052.6	466.83	179.48	1034.5	666.86	-109.8	858.65	28.123	-19.5	901.31	61.523	-62.026	987.8	27.632	-71.566	1035	841.66	-143.56	872.76	120.87	125.71	924.75	248.69	-98.317	951.93	251.28	-32.963	1070.1	21.957	-29.214	923.91	67.358	14.284
